<svg xmlns="http://www.w3.org/2000/svg" viewBox="0 0 255 255"><defs><style>.cls-1,.cls-2{fill:none;stroke:#000;stroke-miterlimit:10;}.cls-1{stroke-width:10px;}.cls-2{stroke-width:5px;}</style></defs><g id="Calque_2" data-name="Calque 2"><g id="logo-LM"><g id="logo-black"><circle id="cercle-3" class="cls-1" cx="127.5" cy="127.5" r="122.5"/><g id="cercle-2"><path d="M55.43,207.27a106.94,106.94,0,0,1-33.68-54.58l-.52-2-.41-2c-.26-1.34-.56-2.67-.79-4-.39-2.7-.86-5.39-1.05-8.12a106.77,106.77,0,0,1-.34-16.39,102.79,102.79,0,0,1,2.15-16.29A104.89,104.89,0,0,1,25.4,88.09,109.08,109.08,0,0,1,127.72,17.51a123,123,0,0,1,16.49,1.28,123,123,0,0,1,16.11,3.75,118.42,118.42,0,0,1,15.35,6.15,109.19,109.19,0,0,1,54.1,59.8A107.87,107.87,0,0,1,236,137c-.19,2.73-.7,5.42-1.08,8.12l-.81,4c-.14.67-.26,1.34-.42,2l-.53,2a106.85,106.85,0,0,1-33.9,54.44,119.19,119.19,0,0,0,10.9-11.91,115,115,0,0,0,9-13.31,105.85,105.85,0,0,0,11.58-29.79,107.41,107.41,0,0,0-4.65-62.66,100.88,100.88,0,0,0-6.89-14.28c-.69-1.13-1.3-2.3-2-3.41L215,68.87c-1.54-2.15-3-4.34-4.72-6.37a99.5,99.5,0,0,0-10.75-11.63A102.82,102.82,0,0,0,187.22,41a111.55,111.55,0,0,0-13.66-8,113,113,0,0,0-14.69-5.82,116.37,116.37,0,0,0-15.4-3.53,118.77,118.77,0,0,0-15.76-1.18,105.6,105.6,0,0,0-31.18,4.58,113.84,113.84,0,0,0-14.71,5.76,116.42,116.42,0,0,0-13.7,7.9A105.77,105.77,0,0,0,44.94,62.16c-1.69,2-3.2,4.21-4.75,6.35S37.27,72.92,36,75.23A99.4,99.4,0,0,0,29,89.49a107.45,107.45,0,0,0-4.91,62.64A106.22,106.22,0,0,0,35.58,182a115.11,115.11,0,0,0,9,13.35A119.12,119.12,0,0,0,55.43,207.27Z"/></g><circle id="cercle-1" class="cls-1" cx="127.5" cy="127.5" r="92.5"/><g id="lifeshootMoments"><path d="M56.3,211.13,61.9,205a.84.84,0,0,1,1.18,0,.85.85,0,0,1,.17,1.18l-5,5.66c1.43,1.26,2.15,1.86,3.62,3a.8.8,0,1,1-1,1.22c-1.78-1.43-2.66-2.17-4.38-3.71l0,0h0A.89.89,0,0,1,56.3,211.13Z"/><path d="M70,212a.8.8,0,0,1-1.16.11.83.83,0,0,1-.23-1.14l.18-.24a.82.82,0,0,1,1.14-.09.81.81,0,0,1,.25,1.13ZM68.51,214l-3.23,4.45a.84.84,0,0,1-1.21.05.86.86,0,0,1-.3-1.17L67.08,213a.83.83,0,0,1,1.18-.09A.81.81,0,0,1,68.51,214Z"/><path d="M73.74,216.09l-.11.16.41.26a.79.79,0,1,1-.84,1.31l-.41-.27-2.7,4.19a1,1,0,0,1-1.59-1.05l2.78-4.13-.35-.24A.79.79,0,1,1,71.8,215l.34.24.11-.16a2.75,2.75,0,0,1,1-1,2,2,0,0,1,1.43-.1,3.71,3.71,0,0,1,.85.41.79.79,0,1,1-.84,1.32,1.27,1.27,0,0,0-.37-.18l-.1,0S74,215.65,73.74,216.09Z"/><path d="M73.74,220.8a3.88,3.88,0,0,1,5.23-1,3.76,3.76,0,0,1,1.92,4.73l0,.07-.07.1a.79.79,0,0,1-1,.11c-1.88-1-2.81-1.49-4.65-2.57a1.93,1.93,0,0,0,0,1.09,3,3,0,0,0,1.1,1.36,3,3,0,0,0,1.71.53,1.25,1.25,0,0,1,1.14.56.58.58,0,0,1-.43.81,4.67,4.67,0,0,1-3.13-.63C73.48,224.78,72.75,222.42,73.74,220.8Zm1.91.34c1.62,1,2.43,1.41,4.08,2.28A2.64,2.64,0,0,0,78.31,221,2.26,2.26,0,0,0,75.65,221.14Z"/><path d="M82.12,227.09a1,1,0,0,1,1.18.44,3.46,3.46,0,0,0,1.42,1.33,2.51,2.51,0,0,0,1.15.21.56.56,0,0,0,.45-.27.39.39,0,0,0,0-.15.63.63,0,0,0-.14-.24,4.53,4.53,0,0,0-1-.9h0a6.56,6.56,0,0,1-1.16-.93,2.59,2.59,0,0,1-.68-1.23,1.54,1.54,0,0,1,.13-.92,1.94,1.94,0,0,1,1.53-1,3.79,3.79,0,0,1,2,.34,4.74,4.74,0,0,1,1.89,1.66.72.72,0,0,1-.17,1.06.93.93,0,0,1-1.18-.28,3.07,3.07,0,0,0-1.15-1.07,1.91,1.91,0,0,0-1-.17c-.23,0-.34.12-.37.19s0,.06,0,.11a.58.58,0,0,0,.11.21,3.59,3.59,0,0,0,.94.79v0h0a7.46,7.46,0,0,1,1.23,1,2.67,2.67,0,0,1,.75,1.22,1.63,1.63,0,0,1-.06,1,1.94,1.94,0,0,1-1.61,1.1,4,4,0,0,1-2.24-.36,5.14,5.14,0,0,1-2.33-2.15A.68.68,0,0,1,82.12,227.09Z"/><path d="M91.33,232.32a.87.87,0,0,1-1.16.4,1,1,0,0,1-.63-.86,1.77,1.77,0,0,1,0-.2l3-7.76a.86.86,0,0,1,1.61.6c-.33.92-.5,1.38-.84,2.3a4.2,4.2,0,0,1,1.74.18,3.38,3.38,0,0,1,2.36,4c-.38,1.21-.56,1.82-.94,3a.93.93,0,0,1-1.75-.55l1-3a1.76,1.76,0,0,0-3.3-1.14C92,230.52,91.76,231.12,91.33,232.32Z"/><path d="M100.15,234.83a3.21,3.21,0,0,1-.44-2.7,3.43,3.43,0,0,1,1.72-2.08,4,4,0,0,1,5.23,1.25,3.47,3.47,0,0,1,.6,2.64,3.32,3.32,0,0,1-1.63,2.2,4.14,4.14,0,0,1-5.48-1.31Zm1.27-2.24a2,2,0,0,0,.2,1.6,2.33,2.33,0,0,0,1.41.89,2.29,2.29,0,0,0,1.6-.17,2.06,2.06,0,0,0,.65-2.89,2.36,2.36,0,0,0-1.31-.85,2.42,2.42,0,0,0-1.62.15A2,2,0,0,0,101.42,232.59Z"/><path d="M110.3,237a3.24,3.24,0,0,1-.7-2.63,3.47,3.47,0,0,1,1.51-2.25,4,4,0,0,1,2.83-.66,3.86,3.86,0,0,1,2.47,1.39,3.45,3.45,0,0,1,.85,2.57,3.3,3.3,0,0,1-1.39,2.35,4.11,4.11,0,0,1-5.57-.77Zm1-2.34a2.07,2.07,0,0,0,.35,1.57,2.36,2.36,0,0,0,1.49.74,2.24,2.24,0,0,0,1.57-.32,2,2,0,0,0,.81-1.41,1.93,1.93,0,0,0-.45-1.53,2.29,2.29,0,0,0-1.38-.72,2.34,2.34,0,0,0-1.59.31A2,2,0,0,0,111.34,234.67Z"/><path d="M123.44,233.09a.85.85,0,0,1-.92.74l-.39,0c-.08,1.57-.13,2.35-.21,3.93a.79.79,0,1,1-.08,1.56,1.71,1.71,0,0,1-1.74-1.68c.11-1.57.16-2.35.27-3.92l-.45,0a.82.82,0,0,1-.81-.85.81.81,0,0,1,.92-.7l.45,0,.15-2a.82.82,0,0,1,.9-.72.81.81,0,0,1,.79.83l-.11,2,.39,0A.83.83,0,0,1,123.44,233.09Z"/><path d="M140.15,229.53c.44,3.3.65,4.95,1.08,8.25a.87.87,0,0,1-.82.89.85.85,0,0,1-1-.67c-.27-2.36-.41-3.54-.67-5.89-.77,1.22-1.17,1.82-2,3a.94.94,0,0,1-.7.39h0a1,1,0,0,1-.77-.27c-1-1-1.49-1.59-2.44-2.66.12,2.37.19,3.55.31,5.92a.93.93,0,0,1-1.84.08c-.12-3.32-.18-5-.29-8.31a.82.82,0,0,1,.8-.81h.05a.85.85,0,0,1,.68.29c1.29,1.5,2,2.23,3.34,3.68,1.13-1.66,1.67-2.49,2.69-4.18a.86.86,0,0,1,.65-.4h0A.84.84,0,0,1,140.15,229.53Z"/><path d="M145.75,236.84a3.23,3.23,0,0,1-1.53-2.26,3.45,3.45,0,0,1,.67-2.62,4,4,0,0,1,2.46-1.55,3.87,3.87,0,0,1,2.8.49,3.45,3.45,0,0,1,1.66,2.14,3.29,3.29,0,0,1-.54,2.68,4.13,4.13,0,0,1-5.52,1.12Zm.21-2.56a2,2,0,0,0,.85,1.36,2.51,2.51,0,0,0,3-.61,2.06,2.06,0,0,0-.63-2.9,2.42,2.42,0,0,0-3,.6A2,2,0,0,0,146,234.28Z"/><path d="M160.81,229.77v0c.43,1.26.65,1.89,1.09,3.16a.82.82,0,0,1-.61,1,.86.86,0,0,1-1.1-.42l-1-3.18v0a1.6,1.6,0,0,0-2-.85,1.57,1.57,0,0,0-1.14,1.86c.37,1.28.56,1.92.93,3.21,0,0,0,.07,0,.1v0s0,.06,0,.09l0,.07a1,1,0,0,1-.69.66l-.16,0a.82.82,0,0,1-.89-.52l-.88-3.23h0c-.23-.84-.34-1.26-.57-2.11a.8.8,0,0,1,.6-1,.81.81,0,0,1,.84.21,3.75,3.75,0,0,1,1.5-.89,3.6,3.6,0,0,1,2.66.17,3.61,3.61,0,0,1,2-1.74,3.23,3.23,0,0,1,4.18,1.58c.5,1.24.74,1.86,1.24,3.1a.84.84,0,0,1-.56,1,.86.86,0,0,1-1.12-.37c-.47-1.25-.71-1.88-1.19-3.13a1.56,1.56,0,0,0-2-.79A1.59,1.59,0,0,0,160.81,229.77Z"/><path d="M168.61,227.39a3.84,3.84,0,0,1,2.13-4.85,3.76,3.76,0,0,1,5,1.14l0,.07a.34.34,0,0,1,0,.12c.12.32-.09.68-.5.9-1.88,1-2.83,1.44-4.74,2.31a1.91,1.91,0,0,0,.9.61,3,3,0,0,0,3.14-1.2,1.21,1.21,0,0,1,1.11-.61.58.58,0,0,1,.42.81,4.68,4.68,0,0,1-2.31,2.2A3.79,3.79,0,0,1,168.61,227.39ZM170,226c1.68-.77,2.52-1.18,4.17-2a2.64,2.64,0,0,0-2.82-.27A2.23,2.23,0,0,0,170,226Z"/><path d="M183.76,218.51l1.85,2.82a.83.83,0,0,1-.34,1.12.86.86,0,0,1-1.18-.14l-1.8-2.85a1.6,1.6,0,0,0-2.21-.3,1.56,1.56,0,0,0-.68,2.07l1.71,2.9a.29.29,0,0,1,0,.14.91.91,0,0,1-.48,1,.84.84,0,0,1-1.16-.2c-.66-1.18-1-1.76-1.66-2.94l-1.07-1.9a.81.81,0,0,1,.37-1.08.9.9,0,0,1,.9,0,3.76,3.76,0,0,1,1.25-1.26A3.28,3.28,0,0,1,183.76,218.51Z"/><path d="M188.22,212.71a.86.86,0,0,1-.27,1.17l-.33.25c.93,1.27,1.4,1.9,2.34,3.17a.87.87,0,0,1,1.23.06.86.86,0,0,1-.3,1.19,1.76,1.76,0,0,1-2.48-.13l-2.28-3.2-.39.27a.78.78,0,1,1-.9-1.26l.39-.28L184,212.29a.84.84,0,0,1,.27-1.15.83.83,0,0,1,1.17.1l1.21,1.65.33-.25A.86.86,0,0,1,188.22,212.71Z"/><path d="M192.86,214.49a1.08,1.08,0,0,1,.94-.91,3.57,3.57,0,0,0,1.86-.75,2.7,2.7,0,0,0,.73-1,.54.54,0,0,0,0-.53.23.23,0,0,0-.14-.07.58.58,0,0,0-.28,0,4.67,4.67,0,0,0-1.3.61h0a7,7,0,0,1-1.38.68,2.79,2.79,0,0,1-1.43.11,1.51,1.51,0,0,1-.78-.51,2,2,0,0,1-.21-1.83,4.14,4.14,0,0,1,1.23-1.71,5.06,5.06,0,0,1,2.4-1.06.7.7,0,0,1,.89.59,1,1,0,0,1-.8,1,3.43,3.43,0,0,0-1.52.63,2.14,2.14,0,0,0-.61.84.53.53,0,0,0,0,.43.15.15,0,0,0,.1.06.49.49,0,0,0,.24,0,3.69,3.69,0,0,0,1.16-.54h0a8.72,8.72,0,0,1,1.46-.74,2.76,2.76,0,0,1,1.47-.19,1.6,1.6,0,0,1,.87.46,2,2,0,0,1,.27,2,4.48,4.48,0,0,1-1.37,1.94,5.47,5.47,0,0,1-3,1.25A.66.66,0,0,1,192.86,214.49Z"/></g><path id="Lm" class="cls-2" d="M93.31,169.83V71.53s-.81-5,4.82,0L140,108.81l41.86-37.28s5.66-5,5.66,0V183.38s0,4.15-5.09,4.12-111.51,0-111.51,0-3.4,0-3.4-5.07V67.5"/></g></g></g></svg>